<?xml version="1.0" encoding="UTF-8" standalone="no"?>
<!-- Created with Inkscape (http://www.inkscape.org/) -->

<svg
   xmlns:dc="http://purl.org/dc/elements/1.1/"
   xmlns:cc="http://creativecommons.org/ns#"
   xmlns:rdf="http://www.w3.org/1999/02/22-rdf-syntax-ns#"
   xmlns:svg="http://www.w3.org/2000/svg"
   xmlns="http://www.w3.org/2000/svg"
   xmlns:sodipodi="http://sodipodi.sourceforge.net/DTD/sodipodi-0.dtd"
   xmlns:inkscape="http://www.inkscape.org/namespaces/inkscape"
   width="744.09448819"
   height="1052.3622047"
   id="svg2"
   version="1.1"
   inkscape:version="0.47 r22583"
   sodipodi:docname="stronglycc.svg"
   inkscape:export-filename="/home/ovi/src/thesis/line-private/trunk/line-gui/extra-resources/stronglycc.png"
   inkscape:export-xdpi="4.4455113"
   inkscape:export-ydpi="4.4455113">
  <defs
     id="defs4">
    <inkscape:perspective
       sodipodi:type="inkscape:persp3d"
       inkscape:vp_x="0 : 526.18109 : 1"
       inkscape:vp_y="0 : 1000 : 0"
       inkscape:vp_z="744.09448 : 526.18109 : 1"
       inkscape:persp3d-origin="372.04724 : 350.78739 : 1"
       id="perspective10" />
    <inkscape:perspective
       id="perspective2832"
       inkscape:persp3d-origin="0.5 : 0.33333333 : 1"
       inkscape:vp_z="1 : 0.5 : 1"
       inkscape:vp_y="0 : 1000 : 0"
       inkscape:vp_x="0 : 0.5 : 1"
       sodipodi:type="inkscape:persp3d" />
    <inkscape:perspective
       id="perspective2854"
       inkscape:persp3d-origin="0.5 : 0.33333333 : 1"
       inkscape:vp_z="1 : 0.5 : 1"
       inkscape:vp_y="0 : 1000 : 0"
       inkscape:vp_x="0 : 0.5 : 1"
       sodipodi:type="inkscape:persp3d" />
    <inkscape:perspective
       id="perspective2878"
       inkscape:persp3d-origin="0.5 : 0.33333333 : 1"
       inkscape:vp_z="1 : 0.5 : 1"
       inkscape:vp_y="0 : 1000 : 0"
       inkscape:vp_x="0 : 0.5 : 1"
       sodipodi:type="inkscape:persp3d" />
    <inkscape:perspective
       id="perspective2878-4"
       inkscape:persp3d-origin="0.5 : 0.33333333 : 1"
       inkscape:vp_z="1 : 0.5 : 1"
       inkscape:vp_y="0 : 1000 : 0"
       inkscape:vp_x="0 : 0.5 : 1"
       sodipodi:type="inkscape:persp3d" />
  </defs>
  <sodipodi:namedview
     id="base"
     pagecolor="#ffffff"
     bordercolor="#666666"
     borderopacity="1.0"
     inkscape:pageopacity="0.0"
     inkscape:pageshadow="2"
     inkscape:zoom="0.98994949"
     inkscape:cx="263.53666"
     inkscape:cy="734.8457"
     inkscape:document-units="px"
     inkscape:current-layer="layer1"
     showgrid="false"
     inkscape:window-width="1214"
     inkscape:window-height="744"
     inkscape:window-x="0"
     inkscape:window-y="0"
     inkscape:window-maximized="1" />
  <metadata
     id="metadata7">
    <rdf:RDF>
      <cc:Work
         rdf:about="">
        <dc:format>image/svg+xml</dc:format>
        <dc:type
           rdf:resource="http://purl.org/dc/dcmitype/StillImage" />
        <dc:title></dc:title>
      </cc:Work>
    </rdf:RDF>
  </metadata>
  <g
     inkscape:label="Layer 1"
     inkscape:groupmode="layer"
     id="layer1">
    <path
       sodipodi:type="arc"
       style="fill:#b3b3b3"
       id="path2909"
       sodipodi:cx="286.37823"
       sodipodi:cy="451.82651"
       sodipodi:rx="242.94168"
       sodipodi:ry="242.94168"
       d="m 529.31992,451.82651 a 242.94168,242.94168 0 1 1 -485.883366,0 242.94168,242.94168 0 1 1 485.883366,0 z"
       transform="translate(-16.162441,-63.63961)" />
    <g
       id="g2901">
      <path
         id="path2822"
         d="m 457.65659,302.58512 2.15031,2.15032 -98.46929,131.28428 c -54.15811,72.20635 -98.22897,131.52461 -97.93524,131.81835 0.29375,0.29374 7.23009,-0.43427 15.4141,-1.6178 15.5622,-2.25052 16.47068,-2.1352 16.50905,2.0956 0.0112,1.23879 -1.16004,1.87779 -4.27768,2.33372 -34.25966,5.0103 -42.17387,6.04055 -42.17387,5.49005 0,-1.50765 -2.01494,-27.1852 -2.55685,-32.58334 l -0.59038,-5.88111 2.81363,0.32527 c 2.41865,0.27961 2.90706,0.89251 3.47909,4.36588 0.366,2.22233 1.21277,7.33623 1.8817,11.36421 0.66895,4.02799 1.5165,7.32361 1.88346,7.32361 0.36696,0 45.21454,-58.61898 99.6613,-130.26439 54.44675,-71.64543 99.23399,-130.28478 99.52722,-130.30968 0.29322,-0.0249 1.50077,0.92236 2.68345,2.10503 l 0,0 z"
         style="fill:#000000" />
      <path
         id="path2822-2"
         d="m 246.98108,574.69882 -2.93739,0.78706 -64.46087,-150.91905 c -35.45348,-83.00548 -64.78916,-150.83109 -65.19041,-150.72359 -0.40126,0.10753 -3.23896,6.47858 -6.30599,14.15791 -5.8321,14.60252 -6.38621,15.33162 -10.069374,13.24945 -1.07842,-0.60969 -1.0462,-1.94352 0.11778,-4.87144 12.790784,-32.17488 15.855664,-39.54391 16.332414,-39.26866 1.30566,0.75382 24.55054,11.84761 29.49642,14.07737 l 5.38838,2.42927 -1.68851,2.27404 c -1.45148,1.95481 -2.22647,2.07133 -5.52051,0.83004 -2.10758,-0.7942 -6.95974,-2.61782 -10.78253,-4.0525 -3.82282,-1.43467 -7.10069,-2.34848 -7.28417,-2.03069 -0.18348,0.3178 28.15825,68.46643 62.98161,151.44142 34.82339,82.97499 63.21293,151.08155 63.08788,151.34795 -0.12504,0.26638 -1.54917,0.83852 -3.16473,1.27142 l 0,0 z"
         style="fill:#000000" />
      <path
         id="path2822-2-0"
         d="m 116.1375,258.67586 0.78707,-2.93739 162.93017,19.63477 c 89.61159,10.79913 163.01814,19.30649 163.12566,18.90524 0.10752,-0.40127 -3.99113,-6.04431 -9.1081,-12.5401 -9.73011,-12.352 -10.08448,-13.19643 -6.43968,-15.34506 1.06722,-0.62909 2.20623,0.0657 4.1599,2.53772 21.46887,27.16459 26.3182,33.50337 25.84145,33.77862 -1.30566,0.75382 -22.5356,15.33759 -26.93957,18.50597 l -4.798,3.45183 -1.12512,-2.59931 c -0.96718,-2.23441 -0.6806,-2.96384 2.04141,-5.19592 1.7416,-1.42813 5.74698,-4.7184 8.90085,-7.3117 3.15387,-2.59332 5.58418,-4.97513 5.4007,-5.29293 -0.18348,-0.3178 -73.37279,-9.84745 -162.64292,-21.17702 -89.27014,-11.32957 -162.44693,-20.79678 -162.61511,-21.03827 -0.16817,-0.24149 0.0484,-1.76089 0.48129,-3.37645 l 0,0 z"
         style="fill:#000000" />
      <path
         transform="translate(67.680221,-4.0203055)"
         d="m 57.578695,251.81628 a 17.172594,17.67767 0 1 1 -34.345188,0 17.172594,17.67767 0 1 1 34.345188,0 z"
         sodipodi:ry="17.67767"
         sodipodi:rx="17.172594"
         sodipodi:cy="251.81628"
         sodipodi:cx="40.406101"
         id="path2868"
         style="fill:#000000"
         sodipodi:type="arc" />
      <path
         transform="translate(204.05081,334.86558)"
         d="m 57.578695,251.81628 a 17.172594,17.67767 0 1 1 -34.345188,0 17.172594,17.67767 0 1 1 34.345188,0 z"
         sodipodi:ry="17.67767"
         sodipodi:rx="17.172594"
         sodipodi:cy="251.81628"
         sodipodi:cx="40.406101"
         id="path2868-7"
         style="fill:#000000"
         sodipodi:type="arc" />
      <path
         transform="translate(429.31483,46.972099)"
         d="m 57.578695,251.81628 a 17.172594,17.67767 0 1 1 -34.345188,0 17.172594,17.67767 0 1 1 34.345188,0 z"
         sodipodi:ry="17.67767"
         sodipodi:rx="17.172594"
         sodipodi:cy="251.81628"
         sodipodi:cx="40.406101"
         id="path2868-9"
         style="fill:#000000"
         sodipodi:type="arc" />
    </g>
  </g>
</svg>
